<!DOCTYPE svg PUBLIC "-//W3C//DTD SVG 1.1//EN" "http://www.w3.org/Graphics/SVG/1.1/DTD/svg11.dtd">
<!-- Uploaded to: SVG Repo, www.svgrepo.com, Transformed by: SVG Repo Mixer Tools -->
<svg version="1.1" id="Layer_1" xmlns="http://www.w3.org/2000/svg" xmlns:xlink="http://www.w3.org/1999/xlink" viewBox="-153.6 -153.6 819.20 819.20" xml:space="preserve" width="256px" height="256px" fill="#000000" stroke="#000000" stroke-width="0.00512">
<g id="SVGRepo_bgCarrier" stroke-width="0" transform="translate(0,0), scale(1)">
<path transform="translate(-153.6, -153.6), scale(25.6)" d="M16,31.76592796528712C18.11063889701021,32.3562490629671,20.707556248720053,31.6533305093334,22.297907924736414,30.145332797620767C23.970696994056187,28.559166588753783,23.127291071027898,25.50960166594739,24.528482468246168,23.679080106132076C25.779279445166036,22.045034366378676,29.3000162074214,22.471762060778246,29.714597248673556,20.456142771995665C30.155463259036896,18.31273063821095,26.95979310367063,17.01022079074145,26.331292702115654,14.914137381238271C25.84624821454364,13.296487335581553,27.34506080726196,11.398821668750221,26.551768165315064,9.907933809328828C25.764457198059507,8.42828771077192,23.797755513408227,8.079346437141453,22.29721545249021,7.332626501880778C20.96559873143319,6.669968584483094,19.571848678664757,6.2675737507744005,18.18039406876942,5.742052413539172C16.589192175333793,5.141090987343302,15.11986274849854,3.681324633112151,13.447235363325571,3.9901866278896456C11.784679105893877,4.297188920601154,11.039665542999575,6.296669053204612,9.686688871609965,7.310472704574488C8.35441200876192,8.308765710472155,6.79085033634739,8.882950307622448,5.5055289081000005,9.941014290088782C3.8585748049055004,11.296770740629997,1.8475466372677811,12.452974086003104,1.0407556478141053,14.427720062211101C0.2209846700140714,16.434236571423625,-0.2609386700053269,19.129178624964073,1.04484736196566,20.859223652266863C2.508971317903309,22.799051700129684,5.727282859825138,22.114357308412146,7.800100248302835,23.38322289926497C9.209445804215276,24.245947272120592,9.941402232490946,25.831283033723402,11.096900580036188,27.012541603347128C12.70625147700235,28.657770731204856,13.783582701682754,31.146021881724966,16,31.76592796528712" fill="#7ed0ec" strokewidth="0"/>
</g>
<g id="SVGRepo_tracerCarrier" stroke-linecap="round" stroke-linejoin="round" stroke="#a3a3a3" stroke-width="20.48"> <rect x="8.879" y="32.037" style="fill:#ff7300;" width="140.931" height="447.253"/> <rect x="185.658" y="252.32" style="fill:#67d3fe;" width="140.931" height="226.962"/> <rect x="362.426" y="177.434" style="fill:#7d8cfc;" width="140.931" height="301.86"/> <path d="M149.694,23.614H8.761C3.922,23.614,0,27.536,0,32.374v38.211c0,4.838,3.922,8.761,8.761,8.761s8.761-3.922,8.761-8.761 v-29.45h123.412v429.728H17.521V99.788c0-4.838-3.922-8.761-8.761-8.761S0,94.95,0,99.788v379.837c0,4.838,3.922,8.761,8.761,8.761 h140.934c4.838,0,8.761-3.922,8.761-8.761V32.374C158.455,27.536,154.533,23.614,149.694,23.614z"/> <path d="M326.467,243.903h-97.73c-4.838,0-8.761,3.922-8.761,8.761s3.922,8.761,8.761,8.761h88.969v209.439H194.293V261.425h5.24 c4.838,0,8.761-3.922,8.761-8.761s-3.922-8.761-8.761-8.761h-14.001c-4.838,0-8.761,3.922-8.761,8.761v226.96 c0,4.838,3.922,8.761,8.761,8.761h140.934c4.838,0,8.761-3.922,8.761-8.761v-226.96 C335.228,247.826,331.306,243.903,326.467,243.903z"/> <path d="M503.239,244.049c4.838,0,8.761-3.922,8.761-8.761v-57.52c0-4.838-3.922-8.761-8.761-8.761H362.306 c-4.838,0-8.761,3.922-8.761,8.761v301.857c0,4.838,3.922,8.761,8.761,8.761h140.934c4.838,0,8.761-3.922,8.761-8.761V264.491 c0-4.838-3.922-8.761-8.761-8.761s-8.761,3.922-8.761,8.761v206.373H371.066V186.53h123.412v48.759 C494.479,240.127,498.401,244.049,503.239,244.049z"/> </g>
<g id="SVGRepo_iconCarrier"> <rect x="8.879" y="32.037" style="fill:#ff7300;" width="140.931" height="447.253"/> <rect x="185.658" y="252.32" style="fill:#67d3fe;" width="140.931" height="226.962"/> <rect x="362.426" y="177.434" style="fill:#7d8cfc;" width="140.931" height="301.86"/> <path d="M149.694,23.614H8.761C3.922,23.614,0,27.536,0,32.374v38.211c0,4.838,3.922,8.761,8.761,8.761s8.761-3.922,8.761-8.761 v-29.45h123.412v429.728H17.521V99.788c0-4.838-3.922-8.761-8.761-8.761S0,94.95,0,99.788v379.837c0,4.838,3.922,8.761,8.761,8.761 h140.934c4.838,0,8.761-3.922,8.761-8.761V32.374C158.455,27.536,154.533,23.614,149.694,23.614z"/> <path d="M326.467,243.903h-97.73c-4.838,0-8.761,3.922-8.761,8.761s3.922,8.761,8.761,8.761h88.969v209.439H194.293V261.425h5.24 c4.838,0,8.761-3.922,8.761-8.761s-3.922-8.761-8.761-8.761h-14.001c-4.838,0-8.761,3.922-8.761,8.761v226.96 c0,4.838,3.922,8.761,8.761,8.761h140.934c4.838,0,8.761-3.922,8.761-8.761v-226.96 C335.228,247.826,331.306,243.903,326.467,243.903z"/> <path d="M503.239,244.049c4.838,0,8.761-3.922,8.761-8.761v-57.52c0-4.838-3.922-8.761-8.761-8.761H362.306 c-4.838,0-8.761,3.922-8.761,8.761v301.857c0,4.838,3.922,8.761,8.761,8.761h140.934c4.838,0,8.761-3.922,8.761-8.761V264.491 c0-4.838-3.922-8.761-8.761-8.761s-8.761,3.922-8.761,8.761v206.373H371.066V186.53h123.412v48.759 C494.479,240.127,498.401,244.049,503.239,244.049z"/> </g>
</svg>